<?xml version="1.0" encoding="utf-8"?>
<!-- Generator: Adobe Illustrator 18.0.0, SVG Export Plug-In . SVG Version: 6.00 Build 0)  -->
<!DOCTYPE svg PUBLIC "-//W3C//DTD SVG 1.1//EN" "http://www.w3.org/Graphics/SVG/1.1/DTD/svg11.dtd">
<svg version="1.1" id="Capa_1" xmlns="http://www.w3.org/2000/svg" xmlns:xlink="http://www.w3.org/1999/xlink" x="0px" y="0px"
	 viewBox="0 0 70.9 70.9" enable-background="new 0 0 70.9 70.9" xml:space="preserve">
<g>
	<path fill="#EDEDED" d="M44.9,39.9c0,0-0.3,0-0.9,0.1s-1.4,0.1-2.3,0.1h-0.1c-0.4,0-1,0-1.7,0c-0.7,0-1.2-0.1-1.6-0.1
		c-0.3,0-0.4,0.2-0.4,0.5c0,0.2,0,0.3,0.1,0.4c0.1,0.1,0.2,0.1,0.3,0.1l3.3-0.1l-4.9,13.1l-4.9-13.2l0.5,0l1.9,0.1
		c0.3,0,0.4-0.2,0.4-0.5c0-0.3-0.1-0.5-0.4-0.5c-0.5,0-1,0.1-1.4,0.1c-0.4,0-1.2,0-2.3,0h-0.1c-0.4,0-1.1,0-1.9,0
		c-0.8,0-1.4-0.1-1.9-0.1c-0.3,0-0.4,0.2-0.4,0.5c0,0.2,0,0.3,0.1,0.4c0.1,0.1,0.2,0.1,0.3,0.1l1.6-0.1l0.5,0L35,57.8
		c0.1,0.2,0.2,0.3,0.5,0.3c0.2,0,0.4-0.1,0.5-0.3l6.2-17l2.7,0.1c0.3,0,0.4-0.2,0.4-0.5S45.1,39.9,44.9,39.9z"/>
	<path fill="#EDEDED" d="M19.9,29.8c0.1,0.1,0.3,0.4,0.6,0.4c0.2,0.1,0.5,0.1,0.8,0.2c0.3,0,0.4,0,0.7,0.1c0.2,0,0.4,0.1,0.6,0.1
		c-0.3,0.2-0.6,0.2-1,0.4c-0.5,0.2-0.9,0.3-1.2,0.4c0,0-0.1,0,0,0c0.1,0,0.4,0.1,0.8,0.3c0.4,0.1,1.4-0.1,1.4-0.1s-0.2,0.3-0.4,0.5
		c-0.1,0.1-0.6,0.1-0.7,0.2c-0.3,0-0.5,0-0.7,0c0,0.1,0.4,0.3,0.6,0.4c0.1,0.1,0.5,0.2,0.8,0.3c0.4,0.1,0.7,0.3,1.4,0.2
		c0.3,0.4,1.2-0.5,1.7-0.3c0.2,0.1,0.5,0.3,0.6,0.4c0.2,0.1,0.7-0.1,0.8,0c0.3,0.2,0.5,0.5,0.7,0.5c0,0,0.5,0,0.8,0
		c0.2,0,0.4,0.3,0.8,0.3c0.3,0,0.5-0.3,0.9-0.4c0.2-0.1,0.5,0.1,0.7-0.1c0.3-0.1,0.5-0.5,0.8-0.7c0.1-0.1,0.6-0.2,0.8-0.4
		c0.5-0.9,2.4-3.1,2.9-3c0.6,1.5-1.5,2.5-1.7,3.1c-0.2,0.6-0.6,1.1-0.9,1.6c-0.4,0.5-0.8,0.9-1.3,1.4c-0.5,0.4-1.3,1.7-1.3,1.7
		c0.3,0,1.5-0.6,1.6-0.7c0.2-0.1,0,0.3,0.2,0.8c0.8-0.9,1.1-0.4,1.3-0.4c0.6-0.4,0.9-0.8,0.9-0.8c0.7-0.2,2,1.1,1.7,0.4
		c-0.3-0.6,0-1.4,0.2-2.1c0.1,0,0.3,0,0.4,0c0.2-0.1,0.5,0,0.6,0.1c0.1,0.1,0,0.6,0,0.7c0,0.1-0.2,0.4-0.1,0.4c0,0,0,0.2-0.1,0.3
		c-0.1,0.2,0,0.3,0.1,0.4c0-0.1,0-0.2,0.1-0.3c0.1,0,0.2-0.1,0.3-0.1c0,0,0.3,0.1,0.4,0.2c0,0.1,0.1,0.3,0.1,0.4
		c0,0.2,0.1,0.4,0.1,0.4s0.2-0.3,0.2-0.4c0-0.2,0-0.4,0-0.4s0,0,0.4,0.2c0,0.1,0.3,0.1,0.3,0.5c0.1-0.2,0.2-0.2,0.1-0.4
		c0-0.2-0.3-0.4-0.4-0.5l0.1,0c0,0,0.3,0.1,0.4,0.1c0,0.1,0.1,0.1,0.1,0.3c0.1-0.1,0.1-0.2,0.2-0.3c0-0.2-0.1-0.4-0.6-0.5L38,35
		c0,0-0.1,0-0.3-0.1c-0.1,0-0.2-0.1-0.2-0.2c0.1-0.4,0.6-0.4,0.4-0.8c0.2,0,0.3,0,0.4,0c0.2,0.2,0.4,0.3,0.5,0.3
		c0.2,0,0.5,0.3,0.7,0.3c0.2,0,0.1,0.3,0.2,0.4c0,0.1,0.1,0.1,0.1,0.2c0,0.1,0,0.2,0,0.4c0,0.2,0,0.4,0.1,0.4c0-0.1,0-0.2,0.1-0.3
		c0.1-0.1,0.3-0.3,0.4-0.4c0,0,0.3,0,0.3,0l0.4,0.1c0,0,0.2,0,0.3,0.1c0.1,0,0.2,0,0.3,0.1c0.1,0.1,0.3,0.3,0.3,0.3s0-0.2,0-0.3
		c-0.1-0.1-0.2-0.2-0.2-0.2c0.1,0,0.1,0,0.2,0c0,0,0.2,0,0.3,0.1c0.1,0.1,0.1,0.1,0.2,0.2c0-0.1,0-0.1,0-0.3c0-0.2,0-0.4-0.3-0.5
		c-0.1-0.1-0.1-0.1-0.2-0.2c-0.1,0-0.4-0.1-0.6-0.1L41,34.6l-0.1,0c0,0-0.4,0-0.5-0.1c-0.5-0.4-0.6-0.5-0.8-0.7
		c-0.1-0.1-0.6-0.6-0.6-0.8c0-0.4,0.2-0.4,0.1-1c0-0.1,0.2-0.3,0.2-0.5c0-0.4,0.3-0.8,0.8-1.3c0.6-0.4,0.4-0.2,1.1-0.8
		c0.4-0.3,0.8-1,0.9-1.3c0.3-1.1,0.7-1,0.8-1.8c0.2,0.1,2.5-1.8,2.9-2.1c0.1-0.1,0.2-0.2,0.3-0.3c0.8-0.7,2.6-2.1,3.2-2.5
		c0.7-0.4,2.1-2,2.4-3c0.4-1,0.3-2.3,0.2-2.3c-0.1,0-0.1,0.4-0.7,1.5c-0.3,0.6-0.9,1.1-1.4,1.5c0.1-0.2,0.2-0.3,0.3-0.5
		c0.4-0.7,0.3-0.8,0.6-1.5c0.2-0.4,0.4-1.4,0.4-1.6c0-0.2,0-0.8-0.1-1c-0.3,0.2-0.2,0.6-0.4,1.1c-0.2,0.5-0.5,1-0.8,1.5
		c-0.2,0.3-0.4,0.6-0.6,0.8c0.3-1.2,0.1-2.2,0-2.6c-0.2,0.4-0.4,1.4-0.8,2.2c-0.3,0.6-0.8,1.2-0.8,1c0.1-0.2,0.4-0.8,0.4-1.3
		c0.1-0.5,0-0.8-0.1-1c-0.3,0.3-0.6,1.3-1.2,2.2c-0.5,0.9-1.1,1.7-1.3,1.9c-0.1,0.2-0.3,0.3-0.4,0.5c-0.5,0.5-1.1,1-1.6,1.4
		c-0.6,0.4-1.1,0.7-1.4,0.7c0,0-0.2,0-0.4,0c-0.2,0-0.4,0.1-0.6,0.1c-0.2,0-0.4,0.1-0.6,0.1c-0.2,0-0.3,0.1-0.3,0.1
		c0,0-0.1,0.1-0.2,0.2c-0.1,0.1-0.2,0.3-0.3,0.4c-0.1,0.1-0.2,0.3-0.3,0.4C39,24.5,39,24.6,39,24.6c-0.2,0.1-0.4,0.1-0.8,0.2
		c-0.3,0-0.7,0.2-1.1,0.4c-0.4,0.2-0.8,0.5-1.4,0.8c-0.5,0.3-1.1,0.6-1.6,0.8c-0.6,0.3-1.1,0.5-1.6,0.7c-0.5,0.2-1,0.3-1.4,0.3
		c0,0,0,0-0.1,0c0,0-0.9-0.4-1.1-0.6c-0.4-0.3-2-1.3-2-1.3c0,0.5,0.6,0.9,1,1.4c0,0.2-0.2,0.1-0.4,0.1c-0.2,0-0.6-0.3-0.7-0.3
		c-1.2-0.5-2.5-2-2.5-2c0,0,0,0.1-0.1,0.2c0,0.1,0,0.1,0,0.2c0,0.3,0.1,0.6,0.3,0.9c0.2,0.3,0.4,0.5,0.7,0.7c0,0-0.1,0-0.1,0
		c-0.1,0-0.1,0-0.2,0c-0.3,0-0.6-0.1-0.9-0.2c-0.3-0.2-0.6-0.4-0.9-0.6c-0.3-0.2-0.5-0.5-0.8-0.7s-0.5-0.5-0.6-0.7
		c0,0,0.1,0.8,0.2,1.1c0.1,0.2,0.3,0.6,0.6,0.8c0.3,0.2,0.4,0.4,0.7,0.6c0.3,0.2,0.7,0.4,0.6,0.4c-0.1,0-0.1,0-0.2,0
		c0,0-0.1,0-0.2,0c-0.1,0-0.1,0-0.1,0c-0.1,0-0.3-0.1-0.6-0.2c-0.3-0.1-0.6-0.2-0.9-0.3c-0.3-0.1-0.6-0.3-0.9-0.4
		c-0.3-0.1-0.6-0.4-0.8-0.5c0,0,0.1,0.6,0.6,1c0.2,0.2,0.4,0.3,0.5,0.3c0.1,0,0.2,0.2,0.4,0.2c0.2,0.1,0.3,0.2,0.5,0.2
		s0.3,0.1,0.5,0.1c-0.2,0-0.3,0-0.4,0c-0.3,0-0.6,0-0.8,0c-0.2,0-0.4,0-0.7-0.1c-0.2,0-0.4-0.1-0.7-0.2c-0.2-0.1-0.5-0.2-0.8-0.4
		c0,0,0.1,0.3,0.3,0.6c0,0,0.3,0.4,0.6,0.5c0.3,0.1,0.3,0.1,0.6,0.3s0.6,0.2,0.8,0.3c0.3,0.1,0.3,0,0.4,0.1
		c-0.5,0.2-0.9,0.2-1.4,0.2C20.9,29.9,20.4,29.9,19.9,29.8z M37.4,26.2c0-0.2,0.1-0.3,0.3-0.4c0.4-0.2,0.7-0.4,1-0.4
		c0.3,0,0.6,0,0.9,0.2c0.3,0.1,0.5,0.3,0.8,0.5c0.2,0.2,0.4,0.4,0.5,0.6c0,0.1,0.1,0.2,0.1,0.2s0,0.1,0.1,0.2c0,0.1,0,0.2,0.1,0.4
		l0.1,0.5c-0.4-0.6-0.7-0.5-0.9-0.5c-0.3,0-1.1,0.2-1.1,0.2c-0.3,0.1-0.4,0.1-0.6,0.1c-0.1,0-0.5,0-0.6,0c-0.1,0-0.2,0-0.3,0
		c0-0.1-0.1-0.2-0.2-0.4c-0.1-0.2-0.1-0.4-0.2-0.6C37.3,26.6,37.4,26.4,37.4,26.2z"/>
	<path fill="#EDEDED" d="M52.3,64.5c4.9-2.9,9.1-6.9,12-11.8c0-0.1,0-0.1,0-0.2c0-0.1,0.1-0.1,0.1-0.2c3-5.1,4.6-11,4.6-16.9
		c0-5.9-1.6-11.7-4.5-16.8c-0.4-0.8-0.9-1.5-1.4-2.2c0,0,0-0.1,0-0.1c-1.1-1.6-2.3-3-3.6-4.3c-0.1-0.1-0.1-0.1-0.2-0.2
		c-0.1-0.1-0.2-0.2-0.4-0.4c-0.2-0.2-0.3-0.3-0.5-0.5c0,0,0,0,0,0c-1.7-1.6-3.6-3.1-5.7-4.3c0,0-0.1,0-0.1,0c-5.1-3-11-4.7-17.1-4.7
		c-6.9,0-13.5,2.1-19,5.9c-0.1,0-0.1,0-0.2,0c-9,6.3-14.4,16.6-14.4,27.6c0,8.2,3,16.1,8.4,22.2c0.1,0.1,0.1,0.1,0.2,0.2
		c0.2,0.2,0.3,0.4,0.5,0.5c0.1,0.1,0.2,0.2,0.3,0.3c0.1,0.1,0.2,0.3,0.4,0.4c0.1,0.2,0.3,0.3,0.5,0.4c0.1,0.1,0.2,0.1,0.2,0.2
		c0.2,0.2,0.4,0.4,0.6,0.6c0,0,0,0,0.1,0.1c1.7,1.5,3.6,2.9,5.6,4.1c5.1,3,11,4.6,16.9,4.6C41.4,69,47.2,67.5,52.3,64.5z M16.5,62.5
		C16.5,62.5,16.5,62.5,16.5,62.5c-1.1-0.8-2.2-1.6-3.2-2.5c0,0,0,0-0.1-0.1c-0.2-0.2-0.4-0.4-0.6-0.6c-0.1-0.1-0.1-0.1-0.2-0.2
		c-0.2-0.1-0.3-0.3-0.4-0.4c-0.1-0.1-0.2-0.2-0.4-0.4c-0.1-0.1-0.2-0.2-0.3-0.3c-0.2-0.2-0.3-0.4-0.5-0.5c-0.1-0.1-0.1-0.1-0.2-0.2
		C9.3,55.7,8,54,7,52.2c0,0,0,0,0,0c-2.9-5-4.6-10.8-4.6-16.7c0-6.8,2.1-13.4,5.9-18.9c0,0,0.1,0,0.1-0.1
		C14.6,7.6,24.8,2.4,35.5,2.4c8.4,0,16.5,3.2,22.5,8.9c0,0,0,0,0,0c0.2,0.2,0.3,0.3,0.5,0.5c0.1,0.1,0.2,0.2,0.4,0.4
		c0.1,0.1,0.1,0.1,0.2,0.2c1.9,2,3.6,4.1,4.9,6.5c2.9,5,4.4,10.7,4.4,16.5c0,5.9-1.6,11.6-4.5,16.7c-2.9,4.9-7,9-11.8,11.9
		c0,0-0.1,0.1-0.1,0.1l0,0c-5,2.9-10.7,4.4-16.5,4.4c-5.9,0-11.6-1.6-16.7-4.5C18,63.6,17.2,63.1,16.5,62.5z"/>
	<path fill="#EDEDED" d="M62.3,52.7c0,0,0-0.1,0-0.2c3.2-5,4.9-10.9,4.9-17.1c0-10.9-5.5-20.9-14.7-26.8c0,0-0.1,0-0.1,0
		C51.7,8,50.8,7.5,49.8,7c-4.5-2.3-9.3-3.4-14.3-3.4c-5,0-9.9,1.2-14.4,3.4c-1.7,0.9-3.3,1.9-4.9,3.1c-0.1,0-0.1,0-0.2,0
		c-3.8,2.9-6.9,6.7-9.1,11c-2.3,4.5-3.4,9.3-3.4,14.3S4.7,45.3,7,49.8c1.1,2.1,2.4,4.1,3.9,5.9c6,7.3,15,11.7,24.6,11.7
		C46.4,67.3,56.4,61.9,62.3,52.7z M4.1,35.4c0-5,1.1-9.7,3.3-14.1c0.8-1.7,1.9-3.3,3-4.8c0.1,0,0.1,0,0.1-0.1
		c2.9-3.8,6.6-6.9,10.8-9c4.4-2.2,9.2-3.4,14.1-3.4c5,0,9.7,1.1,14.1,3.3c4.2,2.1,7.9,5.2,10.8,9l0,0c4.1,5.4,6.4,12,6.4,19
		c0,10.8-5.4,20.7-14.5,26.5c-0.1,0-0.1,0.1-0.1,0.2c-4.9,3.1-10.7,4.8-16.7,4.8c-7,0-13.6-2.3-19-6.4c0,0,0,0-0.1-0.1
		c-1.9-1.4-3.6-3.1-5.2-5c-0.8-1-1.6-2-2.2-3.1c0,0,0,0,0,0c-0.6-0.9-1.1-1.8-1.6-2.7C5.2,45.2,4.1,40.4,4.1,35.4z"/>
	<path fill="#EDEDED" d="M70.7,35.4c0-6.8-2-13.3-5.5-18.9c0,0,0-0.1,0-0.1c-2.3-3.6-5.2-6.7-8.5-9.2c-0.1-0.1-0.2-0.1-0.3-0.2
		c-0.1-0.1-0.3-0.2-0.4-0.3c-0.2-0.2-0.5-0.3-0.7-0.5c0,0,0,0,0,0c-0.8-0.6-1.7-1.1-2.6-1.6c0,0,0,0-0.1,0c-5.1-2.8-11-4.4-17.1-4.4
		c-6.8,0-13.3,2-18.9,5.5c-0.1,0-0.1,0-0.2,0C6.3,12.2,0.2,23.4,0.2,35.4c0,9.5,3.8,18.4,10.4,25c0,0,0.1,0.1,0.1,0.1
		c0.1,0.1,0.2,0.2,0.3,0.3c0.2,0.2,0.4,0.4,0.6,0.6c0,0,0.1,0.1,0.1,0.1c6.4,5.8,14.8,9.2,23.8,9.2c12.8,0,24.6-6.9,30.8-18.1
		c0-0.1,0-0.1,0-0.2C69.2,47.3,70.7,41.5,70.7,35.4z M16.3,64.5C16.3,64.5,16.3,64.5,16.3,64.5c-1.6-1-3-2.1-4.3-3.3
		c0,0-0.1-0.1-0.1-0.1c-0.2-0.2-0.4-0.4-0.6-0.6c-0.1-0.1-0.2-0.2-0.3-0.3c0,0-0.1-0.1-0.1-0.1c-2.3-2.3-4.3-4.9-5.9-7.8
		c0,0,0,0-0.1-0.1c-2.8-5-4.3-10.8-4.3-16.7c0-6.9,2-13.5,5.6-19c0.1,0,0.1,0,0.2-0.1c6.5-9.8,17.3-15.6,29-15.6
		c7.1,0,13.8,2.1,19.4,5.9c0,0,0,0,0,0c0.2,0.2,0.5,0.3,0.7,0.5c0.1,0.1,0.3,0.2,0.4,0.3c0.1,0.1,0.2,0.2,0.3,0.2
		c8.6,6.5,13.8,16.8,13.8,27.8c0,12.7-6.9,24.4-18,30.5c0,0-0.1,0.1-0.1,0.1c-5,2.7-10.7,4.2-16.6,4.2
		C28.6,70.3,21.9,68.2,16.3,64.5z"/>
</g>
</svg>
