<?xml version="1.0" encoding="utf-8"?>
<!-- Generator: Adobe Illustrator 18.0.0, SVG Export Plug-In . SVG Version: 6.00 Build 0)  -->
<!DOCTYPE svg PUBLIC "-//W3C//DTD SVG 1.1//EN" "http://www.w3.org/Graphics/SVG/1.1/DTD/svg11.dtd">
<svg version="1.1" id="Capa_1" xmlns="http://www.w3.org/2000/svg" xmlns:xlink="http://www.w3.org/1999/xlink" x="0px" y="0px"
	 viewBox="0 0 70.9 70.9" enable-background="new 0 0 70.9 70.9" xml:space="preserve">
<g>
	<path d="M42.3,23.1c-4.5-0.1-9-0.1-13.6,0c-3.3,0.1-5.3,2.2-5.5,5.5C23.1,30.3,23,32,23,33.7c0,2.8,0.1,5.7,0.1,8.5
		c0,1,0.3,2,0.8,2.9c1,1.8,2.7,2.5,4.6,2.6c2.3,0.1,4.5,0.2,6.8,0.2c2.3-0.1,4.6-0.1,6.9-0.2c1.1,0,2.2-0.3,3.2-1
		c1.7-1.1,2.4-2.8,2.4-4.7c0.1-4.4,0.1-8.9,0-13.3C47.7,25.4,45.6,23.2,42.3,23.1z M35.4,43.2c-4.3,0-7.8-3.5-7.8-7.8
		c0-4.4,3.5-7.9,7.9-7.8c4.3,0,7.8,3.5,7.7,7.8C43.3,39.8,39.8,43.2,35.4,43.2z M43.6,29.2c-1,0-1.8-0.9-1.8-1.9
		c0-1,0.8-1.8,1.9-1.8c1,0,1.8,0.9,1.8,1.9C45.4,28.4,44.6,29.2,43.6,29.2z"/>
	<path d="M35.5,30.4c-2.8,0-5,2.2-5,5c0,2.8,2.2,5.1,5,5.1c2.8,0,5-2.2,5.1-5C40.5,32.6,38.3,30.4,35.5,30.4z"/>
	<path d="M35.4,10.8c-13.6,0-24.6,11-24.6,24.6c0,13.6,11,24.6,24.6,24.6s24.6-11,24.6-24.6C60.1,21.8,49,10.8,35.4,10.8z
		 M50.5,42.7c-0.1,2.9-1.5,5.2-4,6.7c-1.1,0.6-2.3,1-3.5,1.1c-5,0.3-9.9,0.3-14.9,0c-4-0.3-6.9-3-7.5-6.9c-0.2-1.5-0.3-3.1-0.3-4.6
		c0-3.6,0-7.2,0.2-10.8c0.2-4.1,2.9-7,6.9-7.6c1.7-0.2,3.4-0.2,5.1-0.3c1,0,2,0,3,0c0,0,0,0,0-0.1c2.3,0.1,4.7,0.1,7,0.2
		c2.9,0.2,5.4,1.4,6.9,4c0.7,1.1,1.1,2.4,1.1,3.7C50.6,33,50.7,37.9,50.5,42.7z"/>
</g>
</svg>
