<?xml version="1.0" encoding="utf-8"?>
<!-- Generator: Adobe Illustrator 18.0.0, SVG Export Plug-In . SVG Version: 6.00 Build 0)  -->
<!DOCTYPE svg PUBLIC "-//W3C//DTD SVG 1.1//EN" "http://www.w3.org/Graphics/SVG/1.1/DTD/svg11.dtd">
<svg version="1.1" id="Capa_1" xmlns="http://www.w3.org/2000/svg" xmlns:xlink="http://www.w3.org/1999/xlink" x="0px" y="0px"
	 viewBox="0 0 42.5 42.5" enable-background="new 0 0 42.5 42.5" xml:space="preserve">
<g>
	<path d="M21.2,0.1C9.5,0.1,0,9.6,0,21.3C0,33,9.5,42.5,21.2,42.5c11.7,0,21.2-9.5,21.2-21.2C42.4,9.6,32.9,0.1,21.2,0.1z
		 M21.2,41.1c-10.9,0-19.8-8.9-19.8-19.8S10.3,1.5,21.2,1.5S41,10.4,41,21.3S32.1,41.1,21.2,41.1z"/>
	<path d="M27.4,24.5c0,0-0.2,0-0.6,0c-0.4,0-0.9,0-1.6,0H25c-0.3,0-0.7,0-1.1,0c-0.5,0-0.8,0-1.1-0.1c-0.2,0-0.3,0.1-0.3,0.3
		c0,0.1,0,0.2,0.1,0.2c0.1,0.1,0.1,0.1,0.2,0.1l2.2,0l-3.3,9l-3.3-9l0.4,0l1.3,0.1c0.2,0,0.3-0.1,0.3-0.3c0-0.2-0.1-0.3-0.3-0.3
		c-0.4,0-0.7,0.1-1,0.1c-0.3,0-0.8,0-1.6,0h-0.1c-0.3,0-0.7,0-1.3,0c-0.5,0-1,0-1.3-0.1c-0.2,0-0.3,0.1-0.3,0.3c0,0.1,0,0.2,0.1,0.2
		c0.1,0.1,0.1,0.1,0.2,0.1l1.1-0.1l0.3,0l4.3,11.7c0.1,0.1,0.2,0.2,0.3,0.2c0.2,0,0.3-0.1,0.3-0.2l4.3-11.6l1.8,0
		c0.2,0,0.3-0.1,0.3-0.3C27.6,24.6,27.5,24.5,27.4,24.5z"/>
	<path d="M31.6,9.4c-0.2,0.4-0.6,0.8-1,1c0.1-0.1,0.1-0.2,0.2-0.3c0.3-0.5,0.2-0.6,0.4-1c0.1-0.3,0.3-1,0.3-1.1c0-0.1,0-0.5,0-0.7
		c-0.2,0.1-0.2,0.4-0.3,0.7c-0.1,0.3-0.3,0.7-0.5,1c-0.1,0.2-0.3,0.4-0.4,0.6c0.2-0.8,0.1-1.5,0-1.7c-0.1,0.3-0.3,1-0.5,1.5
		c-0.2,0.4-0.6,0.8-0.5,0.7c0-0.2,0.2-0.5,0.3-0.9c0-0.3,0-0.5-0.1-0.7c-0.2,0.2-0.4,0.9-0.8,1.5c-0.4,0.6-0.8,1.2-0.9,1.3
		c-0.1,0.1-0.2,0.2-0.3,0.3c-0.4,0.4-0.7,0.7-1.1,0.9c-0.4,0.3-0.7,0.4-1,0.5c0,0-0.1,0-0.2,0c-0.1,0-0.3,0-0.4,0.1
		c-0.2,0-0.3,0-0.4,0.1c-0.1,0-0.2,0-0.2,0.1c0,0-0.1,0.1-0.1,0.2c-0.1,0.1-0.1,0.2-0.2,0.3c-0.1,0.1-0.1,0.2-0.2,0.3
		c-0.1,0.1-0.1,0.1-0.1,0.2c-0.1,0.1-0.3,0.1-0.5,0.1c-0.2,0-0.5,0.1-0.8,0.3c-0.3,0.2-0.6,0.3-0.9,0.6c-0.4,0.2-0.7,0.4-1.1,0.6
		c-0.4,0.2-0.8,0.3-1.1,0.5c-0.4,0.1-0.7,0.2-1,0.2c0,0,0,0-0.1,0c0,0-0.6-0.3-0.8-0.4c-0.3-0.2-1.4-0.9-1.4-0.9
		c0,0.4,0.4,0.6,0.7,1c0,0.1-0.1,0.1-0.3,0.1c-0.2,0-0.4-0.2-0.5-0.2c-0.8-0.3-1.7-1.4-1.7-1.4c0,0,0,0.1,0,0.1c0,0.1,0,0.1,0,0.1
		c0,0.2,0.1,0.4,0.2,0.6c0.1,0.2,0.3,0.4,0.5,0.5c0,0,0,0-0.1,0c-0.1,0-0.1,0-0.1,0c-0.2,0-0.4-0.1-0.6-0.2
		c-0.2-0.1-0.4-0.2-0.6-0.4c-0.2-0.2-0.4-0.3-0.5-0.5c-0.2-0.2-0.3-0.3-0.4-0.5c0,0,0,0.6,0.1,0.8c0.1,0.2,0.2,0.4,0.4,0.6
		c0.2,0.2,0.3,0.3,0.5,0.4c0.2,0.1,0.5,0.3,0.4,0.3c-0.1,0-0.1,0-0.1,0s-0.1,0-0.1,0c-0.1,0-0.1,0-0.1,0c-0.1,0-0.2-0.1-0.4-0.1
		s-0.4-0.1-0.6-0.2c-0.2-0.1-0.4-0.2-0.6-0.2c-0.2-0.1-0.4-0.3-0.5-0.3c0,0,0.1,0.4,0.4,0.7c0.2,0.1,0.3,0.2,0.3,0.2
		c0,0,0.2,0.1,0.3,0.2c0.1,0,0.2,0.1,0.3,0.2s0.2,0.1,0.4,0.1c-0.2,0-0.2,0-0.3,0c-0.2,0-0.4,0-0.5,0c-0.2,0-0.3,0-0.5-0.1
		c-0.1,0-0.3-0.1-0.5-0.1c-0.2-0.1-0.3-0.1-0.5-0.2c0,0,0,0.2,0.2,0.4c0,0,0.2,0.3,0.4,0.4c0.2,0.1,0.2,0.1,0.4,0.2
		c0.2,0.1,0.4,0.1,0.6,0.2s0.2,0,0.3,0.1c-0.3,0.1-0.6,0.2-1,0.2c-0.4,0-0.8,0-1.1,0c0.1,0.1,0.2,0.2,0.4,0.3
		c0.2,0.1,0.3,0.1,0.5,0.1c0.2,0,0.3,0,0.5,0.1s0.3,0.1,0.4,0.1c-0.2,0.1-0.4,0.2-0.7,0.3c-0.3,0.1-0.6,0.2-0.8,0.3c0,0-0.1,0,0,0
		c0.1,0,0.3,0.1,0.6,0.2c0.3,0,0.9-0.1,0.9-0.1s-0.1,0.2-0.3,0.3c-0.1,0.1-0.4,0.1-0.5,0.1c-0.2,0-0.4,0-0.5,0
		c0,0.1,0.3,0.2,0.4,0.3c0.1,0.1,0.3,0.1,0.6,0.2c0.2,0.1,0.4,0.2,0.9,0.1c0.2,0.3,0.9-0.3,1.2-0.2c0.1,0.1,0.3,0.2,0.4,0.2
		c0.2,0.1,0.5-0.1,0.6,0c0.2,0.1,0.3,0.3,0.5,0.3c0,0,0.3,0,0.6,0c0.2,0,0.3,0.2,0.5,0.2c0.2,0,0.4-0.2,0.6-0.3c0.1,0,0.3,0,0.5-0.1
		c0.2,0,0.3-0.3,0.5-0.5c0.1,0,0.4-0.1,0.6-0.3c0.3-0.6,1.6-2.1,1.9-2c0.4,1-1,1.7-1.2,2.1c-0.2,0.4-0.4,0.7-0.6,1.1
		c-0.3,0.3-0.5,0.6-0.9,0.9c-0.3,0.3-0.9,1.1-0.9,1.1c0.2,0,1-0.4,1.1-0.5c0.2-0.1,0,0.2,0.1,0.6c0.5-0.6,0.7-0.3,0.9-0.3
		c0.4-0.2,0.6-0.6,0.6-0.5c0.5-0.1,1.4,0.7,1.2,0.3c-0.2-0.4,0-0.9,0.2-1.5c0.1,0,0.2,0,0.3,0c0.2,0,0.3,0,0.4,0c0.1,0,0,0.4,0,0.5
		c0,0.1-0.1,0.2-0.1,0.2c0,0,0,0.1,0,0.2c-0.1,0.1,0,0.2,0.1,0.3c0-0.1,0-0.1,0.1-0.2c0.1,0,0.1-0.1,0.2-0.1c0,0,0.2,0.1,0.2,0.2
		c0,0,0.1,0.2,0.1,0.3c0,0.1,0.1,0.3,0.1,0.3s0.1-0.2,0.1-0.3c0-0.1,0-0.3,0-0.3s0,0,0.3,0.1c0,0.1,0.2,0.1,0.2,0.4
		c0.1-0.1,0.1-0.2,0.1-0.3c0-0.2-0.2-0.3-0.3-0.4l0.1,0c0,0,0.2,0.1,0.3,0.1c0,0.1,0.1,0.1,0,0.2c0.1-0.1,0.1-0.1,0.1-0.2
		c0-0.2-0.1-0.2-0.4-0.4l-0.2-0.1c0,0-0.1,0-0.2-0.1c-0.1,0-0.1-0.1-0.1-0.1c0-0.3,0.4-0.3,0.3-0.5c0.1,0,0.2,0,0.2,0
		c0.1,0.1,0.3,0.2,0.4,0.2c0.1,0,0.4,0.2,0.5,0.2c0.1,0,0.1,0.2,0.1,0.3c0,0.1,0.1,0.1,0.1,0.2c0,0.1,0,0.2,0,0.2
		c0,0.1,0,0.2,0.1,0.3c0-0.1,0-0.1,0-0.2c0.1-0.1,0.2-0.2,0.3-0.2c0,0,0.2,0,0.2,0l0.3,0c0,0,0.1,0,0.2,0.1c0.1,0,0.1,0,0.2,0.1
		c0.1,0.1,0.2,0.2,0.2,0.2s0-0.2,0-0.2c0-0.1-0.1-0.1-0.1-0.2c0,0,0.1,0,0.1,0c0,0,0.1,0,0.2,0.1c0,0.1,0.1,0.1,0.1,0.1
		c0-0.1,0-0.1,0-0.2c0-0.1,0-0.3-0.2-0.3c0,0-0.1-0.1-0.1-0.1c0,0-0.2,0-0.4-0.1l-0.1-0.1l-0.1,0c0,0-0.3,0-0.4-0.1
		c-0.4-0.2-0.4-0.3-0.6-0.5c-0.1-0.1-0.4-0.4-0.4-0.5c0-0.3,0.1-0.3,0.1-0.7c0-0.1,0.1-0.2,0.1-0.3c0-0.3,0.2-0.6,0.6-0.9
		c0.4-0.3,0.3-0.2,0.7-0.5c0.2-0.2,0.5-0.7,0.6-0.9c0.2-0.7,0.5-0.7,0.5-1.2c0.1,0.1,1.7-1.2,2-1.4c0.1-0.1,0.1-0.1,0.2-0.2
		c0.6-0.5,1.8-1.5,2.2-1.7c0.5-0.3,1.4-1.4,1.7-2.1c0.3-0.7,0.2-1.6,0.1-1.6C32,8.3,32,8.6,31.6,9.4z M24.3,16
		c-0.2,0-0.8,0.1-0.8,0.1c-0.2,0-0.3,0.1-0.4,0.1c-0.1,0-0.3,0-0.4,0c-0.1,0-0.1,0-0.2,0c0-0.1-0.1-0.2-0.1-0.3
		c0-0.1-0.1-0.3-0.1-0.4c0-0.1,0-0.3,0-0.4c0-0.1,0.1-0.2,0.2-0.3c0.2-0.2,0.5-0.3,0.7-0.3c0.2,0,0.4,0,0.6,0.1
		c0.2,0.1,0.4,0.2,0.5,0.3c0.2,0.1,0.3,0.3,0.4,0.4c0,0.1,0,0.1,0.1,0.2c0,0,0,0.1,0.1,0.2c0,0.1,0,0.1,0,0.2l0.1,0.4
		C24.7,16,24.5,16,24.3,16z"/>
</g>
</svg>
