<svg id="Capa_1" data-name="Capa 1" xmlns="http://www.w3.org/2000/svg" viewBox="0 0 49.59 34.78"><defs><style>.cls-1{fill:#fff;}</style></defs><title>iconos reproductor radio voluntas</title><path class="cls-1" d="M29.56.4a1.88,1.88,0,0,0-1.88,0L18.77,5.55h0A19.5,19.5,0,0,1,11,7.78H3.65A3.65,3.65,0,0,0,0,11.43V23.49a3.65,3.65,0,0,0,3.65,3.65h7.48a20.75,20.75,0,0,1,7.48,2.15l9.07,5.24a1.88,1.88,0,0,0,2.81-1.62V2A1.88,1.88,0,0,0,29.56.4Z"/><path class="cls-1" d="M44.16,17.46l5.06-5.06a1.25,1.25,0,0,0-1.77-1.77l-5.06,5.06-5.06-5.06a1.25,1.25,0,1,0-1.77,1.77l5.06,5.06-5.06,5.06a1.25,1.25,0,1,0,1.77,1.77l5.06-5.06,5.06,5.06a1.25,1.25,0,0,0,1.77-1.77Z"/></svg>