<svg id="Capa_1" data-name="Capa 1" xmlns="http://www.w3.org/2000/svg" viewBox="0 0 85.04 85.04"><defs><style>.cls-1{fill:#000;}.cls-2{fill:#fff;}</style></defs><title>iconos reproductor radio voluntas</title><path class="cls-1" d="M42.52,83.54a41,41,0,1,1,41-41A41.07,41.07,0,0,1,42.52,83.54Z"/><path class="cls-2" d="M42.52,3A39.52,39.52,0,1,1,3,42.52,39.56,39.56,0,0,1,42.52,3m0-3A42.52,42.52,0,1,0,85,42.52,42.52,42.52,0,0,0,42.52,0Z"/><rect class="cls-2" x="31.08" y="27.46" width="8.5" height="30.13" rx="4.25" ry="4.25"/><rect class="cls-2" x="45.46" y="27.46" width="8.5" height="30.13" rx="4.25" ry="4.25"/></svg>