<svg id="Capa_1" data-name="Capa 1" xmlns="http://www.w3.org/2000/svg" viewBox="0 0 85.04 85.04"><defs><style>.cls-1{fill:#000;}.cls-2{fill:#fff;}</style></defs><title>iconos reproductor radio voluntas</title><path class="cls-1" d="M42.52,83.36a41,41,0,1,1,41-41A41.07,41.07,0,0,1,42.52,83.36Z"/><path class="cls-2" d="M42.52,2.82A39.52,39.52,0,1,1,3,42.34,39.56,39.56,0,0,1,42.52,2.82m0-3A42.52,42.52,0,1,0,85,42.34,42.52,42.52,0,0,0,42.52-.18Z"/><path class="cls-2" d="M57.19,39.31,35.81,27a3.5,3.5,0,0,0-5.25,3V54.69a3.5,3.5,0,0,0,5.25,3L57.19,45.37a3.5,3.5,0,0,0,0-6.06Z"/></svg>