<svg id="Capa_1" data-name="Capa 1" xmlns="http://www.w3.org/2000/svg" viewBox="0 0 50.93 34.78"><defs><style>.cls-1{fill:#fff;}</style></defs><title>iconos reproductor radio voluntas</title><path class="cls-1" d="M29.56.25a1.88,1.88,0,0,0-1.88,0L18.77,5.4h0A19.5,19.5,0,0,1,11,7.64H3.65A3.65,3.65,0,0,0,0,11.29V23.35A3.65,3.65,0,0,0,3.65,27h7.48a20.75,20.75,0,0,1,7.48,2.15l9.07,5.24a1.88,1.88,0,0,0,2.81-1.62V1.88A1.88,1.88,0,0,0,29.56.25Z"/><path class="cls-1" d="M36.09,10.7a1.25,1.25,0,1,0-1.73,1.8,7.12,7.12,0,0,1,.38,9.87A1.25,1.25,0,0,0,36.61,24a9.62,9.62,0,0,0-.52-13.34Z"/><path class="cls-1" d="M40.45,6.6a1.25,1.25,0,1,0-1.77,1.77,13.1,13.1,0,0,1,0,18.52,1.25,1.25,0,1,0,1.77,1.76,15.61,15.61,0,0,0,0-22.05Z"/><path class="cls-1" d="M44.59,2.4a1.25,1.25,0,0,0-1.76,1.77,19,19,0,0,1,0,26.9,1.25,1.25,0,1,0,1.77,1.77,21.5,21.5,0,0,0,0-30.45Z"/></svg>